<svg width="512" height="512" xmlns="http://www.w3.org/2000/svg">

 <g>
  <title>background</title>
  <rect fill="none" id="canvas_background" height="514" width="514" y="-1" x="-1"/>
 </g>
 <g>
  <title>Layer 1</title>
  <path stroke="null" id="svg_1" fill-rule="evenodd" fill="#0000ff" d="m255.593375,5.43196c-14.629299,0 -26.505684,11.876386 -26.505684,26.508018l0,38.910713c-14.738995,2.122742 -28.945846,6.047306 -42.411662,11.348909l-19.403426,-33.718806c-7.419678,-12.61742 -23.535713,-16.966765 -36.259328,-9.652116c-12.725949,7.316983 -17.075295,23.54038 -9.753644,36.1578l19.508454,33.820333c-11.452771,9.117638 -21.84242,19.507287 -30.960058,30.960058l-33.8215,-19.507287c-12.616253,-7.314649 -28.83965,-2.972306 -36.1578,9.753644c-7.314649,12.723615 -2.965304,28.840817 9.652116,36.260495l33.717639,19.504953c-5.301604,13.364289 -9.225,27.569973 -11.347742,42.308968l-38.91188,0c-14.631632,0 -26.505684,11.876386 -26.505684,26.505684c0,14.630465 11.874052,26.508018 26.505684,26.508018l38.910713,0c2.122742,14.742496 6.046139,28.94818 11.347742,42.306634l-33.717639,19.508454c-12.61742,7.423179 -16.966765,23.533379 -9.652116,36.259328c7.31815,12.720114 23.541547,17.058957 36.1578,9.750143l33.8215,-19.507287c9.117638,11.450437 19.507287,21.849422 30.960058,30.957724l-19.508454,33.816832c-7.321651,12.623255 -2.971139,28.850153 9.753644,36.156633c12.723615,7.321651 28.83965,2.97464 36.259328,-9.649782l19.402259,-33.712971c13.465816,5.301604 27.672667,9.225 42.411662,11.347742l0,38.913047c0,14.630465 11.876386,26.504517 26.505684,26.504517c14.630465,0 26.508018,-11.874052 26.508018,-26.504517l0,-38.913047c14.742496,-2.121575 28.949347,-6.046139 42.409328,-11.347742l19.40576,33.712971c7.410342,12.623255 23.533379,16.971433 36.259328,9.649782c12.721281,-7.307647 17.058957,-23.533379 9.750143,-36.156633l-19.50612,-33.816832c11.44927,-9.109469 21.848255,-19.508454 30.956557,-30.957724l33.816832,19.507287c12.623255,7.308814 28.850153,2.969972 36.1578,-9.750143c7.321651,-12.725949 2.97464,-28.836149 -9.650949,-36.259328l-33.712971,-19.508454c5.301604,-13.358454 9.225,-27.564138 11.347742,-42.306634l38.914214,0c14.629299,0 26.50335,-11.87872 26.50335,-26.508018c0,-14.629299 -11.874052,-26.505684 -26.50335,-26.505684l-38.914214,0c-2.121575,-14.738995 -6.046139,-28.944679 -11.347742,-42.308968l33.712971,-19.504953c12.624422,-7.419678 16.9726,-23.53688 9.650949,-36.260495c-7.308814,-12.725949 -23.534546,-17.068293 -36.1578,-9.753644l-33.816832,19.507287c-9.109469,-11.452771 -19.508454,-21.84242 -30.956557,-30.960058l19.50612,-33.820333c7.308814,-12.61742 2.971139,-28.840817 -9.750143,-36.1578c-12.725949,-7.314649 -28.850153,-2.965304 -36.259328,9.652116l-19.40576,33.718806c-13.459982,-5.301604 -27.666832,-9.226167 -42.409328,-11.348909l0,-38.910713c0.002334,-14.631632 -11.875219,-26.508018 -26.505684,-26.508018zm-68.917346,307.475506c0,-29.258597 23.752771,-53.011368 53.012535,-53.011368c29.263265,0 53.012535,23.752771 53.012535,53.011368c0,29.259764 -23.74927,53.012535 -53.012535,53.012535c-29.259764,-0.001167 -53.012535,-23.752771 -53.012535,-53.012535zm106.025071,-100.724634c0,-20.459545 16.649346,-37.108891 37.111225,-37.108891c20.457211,0 37.106557,16.650513 37.106557,37.108891c0,20.464213 -16.649346,37.108891 -37.106557,37.108891c-20.463046,0.001167 -37.111225,-16.644678 -37.111225,-37.108891zm-84.817489,-53.012535c0,-14.631632 11.874052,-26.505684 26.505684,-26.505684c14.630465,0 26.505684,11.874052 26.505684,26.505684c0,14.629299 -11.876386,26.506851 -26.505684,26.506851c-14.631632,0 -26.505684,-11.876386 -26.505684,-26.506851z" clip-rule="evenodd"/>
 </g>
</svg>