<?xml version="1.0"?>
<svg xmlns="http://www.w3.org/2000/svg" height="512px" viewBox="-11 0 512 512" width="512px" class="hovered-paths"><g><path d="m120 100h230c8.285156 0 15-6.714844 15-15s-6.714844-15-15-15v-55c0-8.285156-6.714844-15-15-15h-200c-8.285156 0-15 6.714844-15 15v55c-8.285156 0-15 6.714844-15 15s6.714844 15 15 15zm0 0" data-original="#000000" class="hovered-path active-path" data-old_color="#000000" fill="#FF0000"/><path d="m395 322c-52.382812 0-95 42.617188-95 95 0 20.789062 6.71875 40.039062 18.089844 55.695312l132.605468-132.605468c-15.65625-11.371094-34.90625-18.089844-55.695312-18.089844zm0 0" data-original="#000000" class="hovered-path active-path" data-old_color="#000000" fill="#FF0000"/><path d="m471.910156 361.304688-132.605468 132.605468c15.660156 11.371094 34.90625 18.089844 55.695312 18.089844 52.382812 0 95-42.617188 95-95 0-20.789062-6.71875-40.039062-18.089844-55.695312zm0 0" data-original="#000000" class="hovered-path active-path" data-old_color="#000000" fill="#FF0000"/><path d="m60 242c-33.136719 0-60 26.863281-60 60v60h120v-60c0-33.136719-26.863281-60-60-60zm0 0" data-original="#000000" class="hovered-path active-path" data-old_color="#000000" fill="#FF0000"/><path d="m0 392v60c0 33.136719 26.863281 60 60 60s60-26.863281 60-60v-60zm0 0" data-original="#000000" class="hovered-path active-path" data-old_color="#000000" fill="#FF0000"/><path d="m270 417c0-69.035156 55.964844-125 125-125 5.078125 0 10.082031.3125 15 .898438v-66.898438h-301.84375c25.132812 15.980469 41.84375 44.074219 41.84375 76v150c0 23.03125-8.699219 44.066406-22.980469 60h186.746094c-26.785156-22.925781-43.765625-56.976562-43.765625-95zm-20-81v15c0 8.285156-6.714844 15-15 15s-15-6.714844-15-15v-15h-15c-8.285156 0-15-6.714844-15-15s6.714844-15 15-15h15v-15c0-8.285156 6.714844-15 15-15s15 6.714844 15 15v15h15c8.285156 0 15 6.714844 15 15s-6.714844 15-15 15zm0 0" data-original="#000000" class="hovered-path active-path" data-old_color="#000000" fill="#FF0000"/><path d="m335 130h-200c-38.308594 0-69.976562 28.875-74.441406 66h348.882812c-4.464844-37.125-36.132812-66-74.441406-66zm0 0" data-original="#000000" class="hovered-path active-path" data-old_color="#000000" fill="#FF0000"/></g> </svg>
